<?xml version="1.0" encoding="UTF-8" standalone="no"?>
<!-- Created with Inkscape (http://www.inkscape.org/) -->

<svg
   version="1.1"
   id="svg2"
   width="1024"
   height="1024"
   viewBox="0 0 1024 1024"
   sodipodi:docname="xiangma-paper-logo-20240108.svg"
   inkscape:version="1.1.2 (0a00cf5339, 2022-02-04)"
   inkscape:export-filename="/home/yanll/Downloads/xiangma-paper-logo-20240108.png"
   inkscape:export-xdpi="96"
   inkscape:export-ydpi="96"
   xmlns:inkscape="http://www.inkscape.org/namespaces/inkscape"
   xmlns:sodipodi="http://sodipodi.sourceforge.net/DTD/sodipodi-0.dtd"
   xmlns:xlink="http://www.w3.org/1999/xlink"
   xmlns="http://www.w3.org/2000/svg"
   xmlns:svg="http://www.w3.org/2000/svg">
  <defs
     id="defs6">
    <linearGradient
       inkscape:collect="always"
       id="linearGradient43502">
      <stop
         style="stop-color:#1493d2;stop-opacity:1;"
         offset="0"
         id="stop43498" />
      <stop
         style="stop-color:#1493d2;stop-opacity:0;"
         offset="1"
         id="stop43500" />
    </linearGradient>
    <linearGradient
       id="linearGradient43356"
       inkscape:swatch="solid">
      <stop
         style="stop-color:#1493d2;stop-opacity:1;"
         offset="0"
         id="stop43354" />
    </linearGradient>
    <linearGradient
       inkscape:collect="always"
       xlink:href="#linearGradient43502"
       id="linearGradient43504"
       x1="216.13538"
       y1="818.85766"
       x2="830.15371"
       y2="818.85766"
       gradientUnits="userSpaceOnUse" />
  </defs>
  <sodipodi:namedview
     id="namedview4"
     pagecolor="#ffffff"
     bordercolor="#666666"
     borderopacity="1.0"
     inkscape:pageshadow="2"
     inkscape:pageopacity="0.0"
     inkscape:pagecheckerboard="0"
     showgrid="false"
     inkscape:zoom="0.99902344"
     inkscape:cx="493.48191"
     inkscape:cy="512"
     inkscape:window-width="2304"
     inkscape:window-height="1232"
     inkscape:window-x="0"
     inkscape:window-y="27"
     inkscape:window-maximized="1"
     inkscape:current-layer="g8" />
  <g
     inkscape:groupmode="layer"
     inkscape:label="Image"
     id="g8">
    <path
       style="display:inline;fill:#0083d7;fill-opacity:1;stroke-width:1.62336"
       d="m 396.55008,483.23834 c -7.14277,-3.36939 -23.57926,-9.92196 -36.52552,-14.56127 -41.92558,-15.02407 -61.49832,-26.89077 -83.60962,-50.69147 -6.69263,-7.20397 -12.16843,-13.57774 -12.16843,-14.16395 0,-0.58619 5.2962,0.39469 11.76934,2.17975 16.13599,4.44973 64.49024,4.77121 81.39903,0.54118 14.34887,-3.58962 35.86714,-13.68285 48.62132,-22.80601 9.85377,-7.04848 29.68895,-26.52483 28.36345,-27.85033 -0.37464,-0.37464 -5.77388,1.08992 -11.99831,3.25457 -22.96996,7.98816 -54.4055,9.33733 -77.79867,3.33903 -14.85906,-3.81005 -37.60621,-15.96756 -51.00235,-27.25887 -10.92622,-9.20948 -32.48086,-34.35878 -30.8401,-35.98329 0.37103,-0.36737 7.21148,1.07926 15.20098,3.2147 30.44123,8.13639 66.60519,8.99507 95.05938,2.25707 16.44053,-3.89314 53.96843,-17.92787 90.8988,-33.99442 22.66297,-9.85954 28.61577,-11.79517 38.67831,-12.57671 l 11.89294,-0.92373 -2.36494,5.51956 c -1.30072,3.03578 -9.6744,21.59081 -18.60818,41.23342 -58.39081,128.3832 -81.54554,180.20481 -81.54554,182.5036 0,3.29136 -2.86393,2.69101 -15.42189,-3.23283 z"
       id="path1115"
       inkscape:label="horse head" />
    <path
       style="display:inline;fill:#0083d7;fill-opacity:1;stroke-width:1.62336"
       d="m 513.5352,668.76597 c -16.20232,-22.7484 -45.90388,-50.84999 -71.81071,-67.94239 -31.14561,-20.54874 -83.15785,-41.98895 -121.87801,-50.23989 -7.36598,-1.56962 -13.39269,-3.33263 -13.39269,-3.91779 0,-0.58515 1.90666,-2.8349 4.23702,-4.99945 2.33038,-2.16454 12.28643,-12.88427 22.12457,-23.82164 9.83816,-10.93736 18.79795,-19.88612 19.91066,-19.88612 1.11272,0 7.77577,2.61111 14.8068,5.80245 57.65184,26.16786 100.80868,60.60128 137.01354,109.31859 7.35494,9.89681 13.82402,17.97107 14.37572,17.94279 0.55169,-0.0282 4.29038,-4.92812 8.30819,-10.88855 31.54409,-46.79567 77.07355,-85.13593 136.47977,-114.92926 l 18.38977,-9.22281 6.57394,7.14759 c 3.61566,3.93117 14.06167,15.27173 23.21334,25.20123 9.15167,9.92952 16.6394,18.39786 16.6394,18.81852 0,0.42068 -3.46992,1.25393 -7.71094,1.85168 -33.52694,4.72545 -81.3694,23.34338 -117.11393,45.57498 -25.83012,16.06525 -58.57754,45.25926 -76.90419,68.55933 -4.38916,5.58029 -8.46151,10.12302 -9.04964,10.09497 -0.58814,-0.0281 -2.4838,-2.03697 -4.21261,-4.46423 z"
       id="path1109"
       inkscape:label="book - 2" />
    <path
       style="display:inline;fill:#0083d7;fill-opacity:1;stroke-width:1.62336"
       d="m 509.34346,749.35446 c -27.42964,-37.66679 -86.21723,-73.27247 -145.58332,-88.17497 -25.19888,-6.3256 -36.30749,-7.63854 -74.12285,-8.76064 l -35.48508,-1.05296 6.26466,-7.5782 c 37.45162,-45.30416 53.26452,-63.02906 55.61065,-62.33477 1.43079,0.42342 9.17604,2.35754 17.21165,4.29804 19.57534,4.72719 35.54059,10.74118 57.78059,21.76547 46.86333,23.23003 86.43168,57.03399 116.34258,99.39367 l 10.56371,14.96028 8.17891,-11.71357 c 31.51476,-45.13444 70.1455,-78.62312 118.32838,-102.57793 23.69489,-11.78024 62.01323,-25.55062 71.95589,-25.85862 4.6826,-0.14513 6.65842,1.73879 23.00368,21.93317 9.83458,12.15053 22.66446,27.87367 28.51083,34.9403 l 10.62976,12.84843 -26.22101,0.1401 c -29.52886,0.15762 -48.60363,2.21526 -75.54375,8.14879 -60.41899,13.30721 -115.16236,45.26891 -148.14046,86.49121 -5.67954,7.09938 -10.70939,12.95047 -11.17742,13.00244 -0.46803,0.0519 -4.11634,-4.38961 -8.1074,-9.87017 z"
       id="path1107"
       inkscape:label="book - 1" />
    <path
       style="display:inline;fill:#0083d7;fill-opacity:1;stroke-width:1.62336"
       d="m 270.73994,776.32902 c -13.49761,-2.76981 -25.88681,-7.13831 -38.15615,-13.45411 -13.82568,-7.11691 -17.80889,-10.05942 -30.49817,-22.52974 -19.01618,-18.68808 -30.5768,-38.42087 -36.8267,-62.8594 -3.20719,-12.54085 -3.28321,-17.37386 -3.25569,-206.97797 0.0313,-216.13257 -0.51722,-204.94984 11.29059,-230.14704 19.65271,-41.93781 57.74404,-70.28751 103.12787,-76.75357 14.61381,-2.0821 456.55121,-2.1703 472.39678,-0.0943 52.44687,6.87138 96.88756,47.59179 110.70505,101.43754 2.15733,8.40699 2.51426,35.47876 2.70742,205.35461 0.24652,216.79758 0.83479,203.77644 -10.31742,228.37211 -8.97137,19.78593 -25.71517,41.49371 -40.67601,52.73505 -16.1317,12.12113 -42.28919,22.62207 -64.04239,25.70986 -13.55718,1.92439 -206.97798,2.27764 -206.97798,0.37802 0,-1.91717 15.39313,-19.22644 26.68706,-30.00908 11.36342,-10.84899 34.1165,-26.64318 49.51189,-34.36899 26.15002,-13.12278 64.4538,-24.60868 97.3825,-29.20143 20.26643,-2.82669 54.53347,-3.35538 60.88791,-0.93942 4.05535,1.54183 4.16407,1.97496 4.16407,16.58859 v 15.0054 l 9.66194,-9.56113 c 5.31408,-5.25862 11.82388,-13.63662 14.46622,-18.61777 10.09613,-19.03251 9.72266,-12.56399 10.31739,-178.69743 0.29886,-83.48112 0.1586,-170.41186 -0.31168,-193.17944 l -0.85506,-41.39556 -5.84139,-12.17518 c -10.42784,-21.73471 -29.63053,-38.74296 -51.29721,-45.43512 -9.16743,-2.83154 -15.44995,-3.19472 -57.34041,-3.3147 -25.87473,-0.0741 -47.04498,-0.69705 -47.04498,-1.3843 0,-0.68725 3.65256,-10.92781 8.11679,-22.7568 4.46423,-11.82898 8.11678,-22.12719 8.11678,-22.8849 0,-0.7577 -16.98437,6.8675 -37.74304,16.94488 -20.75867,10.07739 -43.80514,20.97927 -51.21437,24.22639 l -13.47131,5.90385 H 423.5979 c -155.0437,0 -150.00749,-0.30056 -169.55715,10.11929 -19.89127,10.60195 -37.14098,33.46529 -41.6555,55.21166 -1.24138,5.97975 -1.64373,65.22605 -1.33685,196.85242 l 0.43902,188.2981 4.39781,10.97448 c 2.4188,6.03594 6.77412,14.42829 9.67848,18.64965 6.07312,8.82697 18.32822,21.51161 20.78315,21.51161 1.01613,0 1.66609,-5.71528 1.66609,-14.65039 0,-14.47671 0.0529,-14.67109 4.46423,-16.39649 8.25857,-3.23019 59.84767,-0.72019 85.63206,4.1663 66.59941,12.62148 119.37024,42.50467 155.55422,88.08761 l 2.9587,3.72723 -107.6652,-0.15259 c -82.89034,-0.11739 -110.09329,-0.65074 -118.21702,-2.31778 z"
       id="path1105"
       inkscape:label="border" />
    <path
       id="path1111"
       style="display:inline;fill:#0083d7;fill-opacity:1;stroke-width:1.62336"
       d="m 646.24897,209.18194 c -3.61361,0.47975 -95.20488,45.55778 -98.22577,48.38364 -1.51104,1.41347 -11.27187,21.56464 -21.69019,44.77864 -50.43081,112.36949 -82.409,183.94905 -86.18058,192.90993 -4.77747,11.35075 -6.43896,8.49255 13.31659,22.88869 13.90178,10.13043 39.83454,34.96704 53.84028,51.56378 8.43711,9.99796 11.17121,12.31712 12.60637,10.68815 1.00804,-1.14416 8.21425,-9.51771 16.01162,-18.60836 7.79737,-9.09066 14.81875,-16.76102 15.60579,-17.04524 0.78703,-0.28424 4.95472,-3.85807 9.26137,-7.9424 4.30667,-4.08434 12.97465,-11.39728 19.26152,-16.24941 l 11.43007,-8.82068 -1.91187,-6.48074 c -1.05233,-3.56339 -7.42934,-24.00982 -14.17267,-45.43813 -13.55763,-43.08216 -19.21614,-62.77288 -18.30081,-63.68821 0.33233,-0.33232 2.13434,1.86946 4.00449,4.89543 5.67425,9.18113 19.96803,21.46084 31.09108,26.70613 13.43729,6.33661 24.22772,8.54798 41.70314,8.54798 13.65004,0 14.32591,0.18646 28.73533,7.96143 8.11587,4.37913 23.44568,13.0779 34.06828,19.32809 l 19.31541,11.36349 14.14413,-24.604 c 7.77922,-13.53108 15.70568,-27.15762 17.61279,-30.28258 1.90711,-3.12496 3.46857,-6.47308 3.47182,-7.44143 0.003,-0.96835 -29.57933,-30.13197 -65.7396,-64.80745 -36.16027,-34.67548 -65.74594,-64.05262 -65.74594,-65.28303 0,-1.23041 1.21502,-4.57452 2.6982,-7.43194 3.32705,-6.40971 24.58609,-65.02467 23.89378,-65.8791 -0.013,-0.0146 -0.0472,-0.0203 -0.10455,-0.013 z m -22.01361,122.01807 c 7.68845,-0.24356 15.31811,4.4555 18.33252,13.58927 2.37176,7.18647 -0.29034,15.33095 -6.80415,20.81195 -8.49363,7.14692 -19.97583,4.80772 -26.9122,-5.48518 -4.53113,-6.72373 -4.68272,-12.31075 -0.52,-19.13785 3.90711,-6.40785 9.92394,-9.58874 15.90383,-9.77819 z"
       inkscape:label="horse face" />
    <text
       xml:space="preserve"
       style="font-style:normal;font-variant:normal;font-weight:900;font-stretch:normal;font-size:103.895px;line-height:1.25;font-family:'Noto Sans CJK SC';-inkscape-font-specification:'Noto Sans CJK SC Heavy';text-align:center;word-spacing:0px;text-anchor:middle;fill:#0083d7;fill-opacity:1;stroke-width:1.62336"
       x="514.52435"
       y="900.49377"
       id="text3178"
       inkscape:label="text"><tspan
         sodipodi:role="line"
         id="tspan3176"
         x="514.52435"
         y="900.49377"
         style="font-style:normal;font-variant:normal;font-weight:900;font-stretch:normal;font-size:103.895px;font-family:'Noto Sans CJK SC';-inkscape-font-specification:'Noto Sans CJK SC Heavy';text-align:center;text-anchor:middle;fill:#0083d7;fill-opacity:1;stroke-width:1.62336">响马读paper</tspan></text>
  </g>
</svg>
